<?xml version="1.0" encoding="UTF-8"?>
<svg id="Capa_2" data-name="Capa 2" xmlns="http://www.w3.org/2000/svg" viewBox="0 0 49.84 49.85">
  <defs>
    <style>
      .cls-1 {
        fill: #90ff2a;
      }

      .cls-2 {
        fill: #17e200;
      }

      .cls-3 {
        fill: #d8ff78;
      }
    </style>
  </defs>
  <g id="_Слой_1" data-name="Слой 1">
    <path class="cls-2" d="m24.92,49.85C11.18,49.85,0,38.66,0,24.92S11.18,0,24.92,0c5.87,0,11.57,2.08,16.05,5.86.37.31.41.86.1,1.23-.31.37-.86.41-1.23.1-4.17-3.51-9.47-5.45-14.93-5.45C12.14,1.74,1.74,12.14,1.74,24.92s10.4,23.18,23.18,23.18,23.18-10.4,23.18-23.18c0-5.43-1.91-10.7-5.39-14.86-.31-.37-.26-.92.11-1.23.37-.31.92-.26,1.23.11,3.74,4.47,5.79,10.14,5.79,15.98,0,13.74-11.18,24.92-24.92,24.92Zm-10.41-10.18h-2.15c-2.03,0-3.68-1.65-3.68-3.68v-4.81c0-.48.39-.87.87-.87s.87.39.87.87v4.81c0,1.07.87,1.93,1.93,1.93h2.15c1.07,0,1.93-.87,1.93-1.93v-12.62c0-1.07-.87-1.93-1.93-1.93h-2.15c-1.07,0-1.93.87-1.93,1.93v2.92c0,.48-.39.87-.87.87s-.87-.39-.87-.87v-2.92c0-2.03,1.65-3.68,3.68-3.68h2.15c2.03,0,3.68,1.65,3.68,3.68v12.62c0,2.03-1.65,3.68-3.68,3.68Zm23.64-.72h-14.34c-1.86,0-3.59-.41-3.59-3.37,0-2.58-.07-12.36-.07-12.36,0-2.88,2.49-5.64,4.31-7.65l.54-.6c1.22-1.37,2.85-3.34,2.96-4.56.12-1.34.4-4.44,2.78-4.67,3.16-.31,3.76,2.76,3.96,3.77.49,2.49-.89,7.11-2.34,10.61-.19.44-.7.66-1.14.47-.44-.19-.65-.69-.47-1.14,1.68-4.03,2.58-7.89,2.24-9.6-.46-2.33-1.24-2.45-2.08-2.37-.94.09-1.13,2.25-1.21,3.07-.12,1.4-1.11,3.01-3.39,5.58l-.55.61c-1.63,1.8-3.86,4.27-3.86,6.48,0,0,.06,9.79.06,12.37,0,1.41.24,1.62,1.84,1.62h14.25s.05,0,.08,0c.71-.02,1.27-.59,1.27-1.3,0-.57-.37-1.06-.92-1.23-.43-.13-.69-.57-.59-1.01.09-.44.5-.74.95-.69l.18.02c.81,0,1.47-.66,1.47-1.48,0-.66-.45-1.24-1.09-1.42-.42-.11-.7-.52-.64-.96.06-.48.54-.83,1.01-.75.73,0,1.41-.69,1.41-1.54,0-.7-.48-1.31-1.17-1.48-.43-.1-.71-.51-.66-.95.06-.48.54-.83,1.02-.76.74,0,1.42-.69,1.42-1.53s-.68-1.53-1.53-1.53h-3.44s0,.01,0,.01c-.48,0-.87-.39-.87-.87,0-.48.39-.87.87-.88h3.45c1.81-.01,3.27,1.45,3.27,3.26,0,1.09-.53,2.05-1.35,2.65.46.57.74,1.29.74,2.06,0,1.1-.54,2.07-1.38,2.67.44.55.7,1.25.7,1.99,0,1.17-.63,2.2-1.57,2.76.3.47.47,1.03.47,1.63,0,1.63-1.25,2.94-2.86,3.04-.04,0-.09.01-.13.01Z"/>
    <path class="cls-1" d="m24.92,49.5C11.37,49.5.35,38.47.35,24.92S11.37.35,24.92.35c5.79,0,11.41,2.05,15.83,5.78.22.19.25.52.06.74-.19.22-.52.25-.74.06-4.23-3.57-9.61-5.53-15.16-5.53C11.95,1.4,1.39,11.95,1.39,24.92s10.55,23.53,23.53,23.53,23.53-10.55,23.53-23.53c0-5.51-1.94-10.86-5.47-15.08-.19-.22-.16-.55.06-.74.22-.19.55-.16.74.07,3.68,4.41,5.71,10,5.71,15.75,0,13.55-11.02,24.57-24.57,24.57Zm-10.41-10.18h-2.15c-1.84,0-3.33-1.49-3.33-3.33v-4.81c0-.29.23-.52.52-.52s.52.23.52.52v4.81c0,1.26,1.02,2.28,2.28,2.28h2.15c1.26,0,2.28-1.02,2.28-2.28v-12.62c0-1.26-1.02-2.28-2.28-2.28h-2.15c-1.26,0-2.28,1.02-2.28,2.28v2.92c0,.29-.23.52-.52.52s-.52-.23-.52-.52v-2.92c0-1.83,1.49-3.33,3.33-3.33h2.15c1.84,0,3.33,1.49,3.33,3.33v12.62c0,1.84-1.49,3.33-3.33,3.33Zm23.64-.71h-14.34c-2,0-3.24-.51-3.24-3.02s-.07-12.36-.07-12.36c0-2.75,2.44-5.45,4.23-7.42l.54-.6c1.36-1.53,2.93-3.45,3.05-4.76.11-1.26.37-4.15,2.46-4.35,2.54-.26,3.26,1.87,3.58,3.49.48,2.41-.89,6.96-2.32,10.4-.11.27-.42.39-.68.28-.27-.11-.39-.42-.28-.68,1.73-4.15,2.62-8,2.26-9.8-.46-2.35-1.32-2.76-2.45-2.65-1.23.12-1.42,2.32-1.52,3.38-.15,1.63-1.75,3.63-3.31,5.38l-.54.61c-1.67,1.85-3.96,4.37-3.96,6.71,0,0,.06,9.79.06,12.37,0,1.6.41,1.97,2.19,1.97h14.27s.04,0,.06,0c.9-.02,1.61-.75,1.61-1.65,0-.72-.47-1.35-1.16-1.57-.26-.08-.41-.34-.36-.61.06-.26.3-.45.57-.41l.22.02c1.01,0,1.83-.82,1.83-1.83,0-.82-.56-1.54-1.35-1.75-.25-.07-.42-.31-.38-.57.03-.26.26-.46.52-.46h0c1.06,0,1.9-.84,1.9-1.87,0-.86-.59-1.61-1.43-1.81-.26-.06-.43-.31-.4-.57.03-.27.26-.44.53-.46,1.08,0,1.92-.84,1.92-1.87s-.84-1.87-1.87-1.87h-3.44c-.31.04-.52-.22-.53-.51,0-.29.23-.52.52-.52h3.45c1.61-.01,2.92,1.3,2.92,2.91,0,1.11-.63,2.09-1.55,2.58.58.54.93,1.3.93,2.14,0,1.12-.64,2.1-1.57,2.59.55.53.89,1.27.89,2.06,0,1.18-.72,2.2-1.74,2.64.41.47.65,1.09.65,1.75,0,1.45-1.12,2.61-2.55,2.69-.03,0-.06,0-.09,0Z"/>
    <path class="cls-3" d="m24.92,49.15C11.57,49.15.7,38.28.7,24.92S11.57.7,24.92.7c5.71,0,11.25,2.02,15.6,5.69.07.06.08.17.02.25-.06.07-.17.08-.25.02-4.29-3.62-9.75-5.61-15.38-5.61C11.76,1.05,1.05,11.76,1.05,24.92s10.71,23.88,23.88,23.88,23.87-10.71,23.87-23.88c0-5.59-1.97-11.03-5.55-15.31-.06-.07-.05-.18.02-.25.07-.06.18-.05.24.02,3.63,4.34,5.63,9.86,5.63,15.53,0,13.36-10.87,24.23-24.22,24.23Zm-10.41-10.18h-2.15c-1.64,0-2.98-1.34-2.98-2.98v-4.81c0-.1.08-.17.17-.17s.17.08.17.17v4.81c0,1.45,1.18,2.63,2.63,2.63h2.15c1.45,0,2.63-1.18,2.63-2.63v-12.62c0-1.45-1.18-2.63-2.63-2.63h-2.15c-1.45,0-2.63,1.18-2.63,2.63v2.92c0,.1-.08.17-.17.17s-.17-.08-.17-.17v-2.92c0-1.64,1.34-2.98,2.98-2.98h2.15c1.64,0,2.98,1.34,2.98,2.98v12.62c0,1.64-1.34,2.98-2.98,2.98Zm23.64-.71h-14.34c-1.87,0-2.89-.42-2.89-2.67,0-2.55-.06-12.27-.07-12.37,0-2.61,2.39-5.25,4.13-7.18.19-.21.37-.41.54-.6,1.39-1.57,3.01-3.55,3.13-4.96.11-1.27.35-3.86,2.15-4.04,2.24-.21,2.89,1.6,3.2,3.21.46,2.34-.89,6.8-2.3,10.2-.04.09-.14.13-.23.09-.09-.04-.13-.14-.1-.23,1.75-4.21,2.65-8.14,2.28-10-.43-2.2-1.27-3.08-2.83-2.93-1.51.14-1.73,2.55-1.83,3.7-.14,1.53-1.71,3.47-3.22,5.18-.17.19-.35.39-.54.6-1.71,1.89-4.04,4.47-4.04,6.95,0,.1.07,9.81.07,12.37,0,1.8.57,2.32,2.54,2.32h14.3s.02,0,.04,0c1.09-.03,1.95-.9,1.95-1.99,0-.87-.57-1.64-1.41-1.9-.09-.03-.14-.11-.12-.2.02-.09.1-.16.19-.14h.08c.06.02.12.03.18.03,1.2,0,2.17-.98,2.17-2.18,0-.98-.66-1.84-1.61-2.09-.08-.02-.14-.11-.13-.19.01-.09.09-.15.17-.15h0c1.25,0,2.25-1,2.25-2.22,0-1.02-.7-1.91-1.7-2.15-.09-.02-.14-.1-.13-.19.01-.09.08-.15.17-.15,0,0,.05,0,.05,0,1.23,0,2.22-1,2.22-2.22s-1-2.22-2.22-2.22h-3.44c-.1.01-.18-.07-.18-.16s.08-.17.18-.18h3.44c1.42-.01,2.57,1.14,2.57,2.56,0,1.19-.81,2.2-1.92,2.49.79.45,1.3,1.29,1.3,2.23,0,1.2-.82,2.2-1.93,2.49.75.45,1.24,1.26,1.24,2.16,0,1.24-.9,2.28-2.08,2.48.61.43.98,1.13.98,1.9,0,1.27-.98,2.29-2.25,2.34-.02,0-.03,0-.05,0Z"/>
  </g>
</svg>