<?xml version="1.0" encoding="UTF-8"?><svg xmlns="http://www.w3.org/2000/svg" viewBox="0 0 47.13 74.85"><defs><style>.d{fill:#ffeb36;}.e{fill:#fff;}.f{fill:#7345ff;}.g{fill:#e8baff;}.h{fill:#aaff5c;}.i{fill:#ffec4a;}.j{fill:#ff751f;}.k{fill:#ffc400;}.l{fill:#b57dff;}.m{fill:#17e200;}.n{fill:#ff0703;}.o{fill:#e4ffa3;}</style></defs><g id="a"/><g id="b"><g id="c"><g><path class="m" d="M39.21,74.85H7.91c-.43,0-.78-.34-.79-.78l-.6-22.63c-.01-.44,.33-.8,.77-.82h.02c.43,0,.78,.34,.79,.77l.58,21.86h29.7l-.56-21.04H11.25c-.44,0-.8-.35-.8-.8s.36-.8,.8-.8h27.35c.43,0,.78,.34,.79,.77l.6,22.63c0,.21-.08,.42-.23,.58-.15,.15-.36,.24-.57,.24Z"/><path class="f" d="M14.86,71.63c-.25,0-.5-.12-.66-.34-.33-.46-.37-1.16-.4-1.83-.01-.28-.04-.69-.08-.81-.04-.09-.18-.1-.21-.1-.1,.01-.2,.02-.31,.02h-1.54v2.25c0,.44-.36,.8-.79,.8s-.8-.36-.8-.8v-5.8c0-.71,.57-1.28,1.26-1.28h1.87c1.3,0,2.36,1.08,2.36,2.41,0,.59-.21,1.13-.55,1.55,.07,.1,.12,.21,.17,.32,.15,.36,.18,.84,.2,1.35,.02,.32,.04,.85,.12,1,.25,.36,.17,.84-.19,1.1-.14,.1-.3,.14-.46,.14Zm-3.21-4.65h1.54s.07,0,.1,0h.01c.37-.06,.66-.4,.66-.81,0-.45-.35-.82-.77-.82h-1.54v1.63Zm14.99,4.64c-1.7,0-3.42-1.21-3.42-3.93s1.72-3.93,3.42-3.93,3.42,1.22,3.42,3.93-1.72,3.93-3.42,3.93Zm0-6.27c-1.15,0-1.83,.87-1.83,2.34s.68,2.34,1.83,2.34,1.82-.88,1.82-2.34-.68-2.34-1.82-2.34Zm-7.27,6.27c-1.7,0-3.42-1.21-3.42-3.93s1.72-3.93,3.42-3.93,3.41,1.22,3.41,3.93-1.72,3.93-3.41,3.93Zm0-6.27c-1.15,0-1.83,.87-1.83,2.34s.68,2.34,1.83,2.34,1.83-.88,1.83-2.34-.68-2.34-1.83-2.34Zm14.45,6.26h0c-.4,0-.74-.25-.91-.67l-.87-2.32v2.19c0,.44-.36,.79-.8,.79s-.79-.36-.79-.79v-6.05c0-.78,.53-.95,.69-.98,.16-.03,.72-.08,1.02,.64l1.67,4.44,1.66-4.41c.31-.75,.87-.7,1.03-.67,.16,.03,.69,.2,.69,.98v6.05c0,.44-.36,.79-.79,.79s-.79-.36-.79-.79v-2.19l-.86,2.29c-.19,.45-.53,.69-.92,.69Zm-13.16-31.21c-1.71,0-2.9-.7-2.9-1.71s1.2-1.71,2.9-1.71,2.9,.7,2.9,1.71-1.19,1.71-2.9,1.71Zm-.93-1.71c.45,.13,1.41,.13,1.87,0-.46-.13-1.41-.13-1.87,0Zm15.38-6.42H17.31c-.44,0-.79-.36-.79-.8s.36-.8,.79-.8h17.03l.55-15.67H13l-.49,14.09c-.02,.44-.39,.8-.82,.77-.44-.02-.78-.38-.77-.82l.52-14.86c.01-.43,.37-.77,.79-.77h23.48c.22,0,.42,.09,.57,.24,.15,.15,.23,.36,.22,.58l-.6,17.26c-.01,.43-.37,.77-.79,.77Z"/><path class="l" d="M19.37,71.3c-1.54,0-3.1-1.12-3.1-3.61s1.56-3.61,3.1-3.61,3.1,1.12,3.1,3.61-1.56,3.61-3.1,3.61Zm0-6.27c-1.32,0-2.14,1.02-2.14,2.66s.82,2.66,2.14,2.66,2.14-1.02,2.14-2.66-.82-2.66-2.14-2.66Z"/><path class="l" d="M26.64,71.3c-1.54,0-3.1-1.12-3.1-3.61s1.56-3.61,3.1-3.61,3.1,1.12,3.1,3.61-1.56,3.61-3.1,3.61Zm0-6.27c-1.32,0-2.14,1.02-2.14,2.66s.82,2.66,2.14,2.66,2.14-1.02,2.14-2.66-.82-2.66-2.14-2.66Z"/><path class="l" d="M14.85,71.31c-.15,0-.29-.07-.39-.2-.28-.39-.31-1-.34-1.66-.02-.34-.04-.76-.11-.92-.12-.3-.47-.3-.53-.29-.09,.01-.18,.02-.28,.02h-1.87v2.57c0,.26-.21,.48-.47,.48s-.48-.21-.48-.48v-5.8c0-.53,.42-.96,.94-.96h1.87c1.13,0,2.05,.94,2.05,2.09,0,.61-.26,1.15-.66,1.53,.12,.12,.23,.27,.3,.46,.13,.31,.16,.76,.18,1.23,.02,.4,.05,.99,.17,1.15,.15,.21,.1,.51-.11,.66-.08,.06-.18,.09-.28,.09Zm-3.51-4.01h1.86c.05,0,.1,0,.15,0h.01c.53-.08,.93-.56,.93-1.12,0-.63-.49-1.14-1.09-1.14h-1.87v2.27Z"/><path class="l" d="M33.82,71.3h0c-.26,0-.5-.18-.62-.47l-1.48-3.94v3.94c0,.26-.21,.48-.48,.48s-.48-.21-.48-.48v-6.05c0-.51,.27-.64,.44-.67,.17-.03,.47-.02,.66,.45l1.96,5.22,1.95-5.2c.2-.48,.5-.5,.67-.47,.16,.03,.44,.16,.44,.67v6.05c0,.26-.21,.48-.48,.48s-.48-.21-.48-.48v-3.94l-1.48,3.93c-.13,.31-.36,.49-.63,.49Z"/><path class="l" d="M35.11,31.96H17.31c-.26,0-.48-.21-.48-.48s.21-.48,.48-.48h17.34l.57-16.31H12.7l-.5,14.4c0,.26-.23,.47-.49,.46-.26-.01-.47-.23-.46-.49l.52-14.86c0-.26,.22-.46,.48-.46h23.48c.13,0,.25,.05,.34,.15,.09,.09,.14,.22,.13,.35l-.6,17.26c0,.26-.22,.46-.48,.46Z"/><path class="l" d="M20.66,40.09c-1.29,0-2.58-.48-2.58-1.39,0-1.82,5.17-1.82,5.17,0,0,.91-1.3,1.39-2.58,1.39Zm0-1.83c-1.01,0-1.58,.33-1.63,.46,.05,.09,.62,.42,1.63,.42s1.58-.33,1.63-.46c-.05-.09-.62-.42-1.63-.42Z"/><path class="g" d="M19.37,70.99c-1.28,0-2.78-.86-2.78-3.29s1.5-3.3,2.78-3.3,2.78,.86,2.78,3.3-1.5,3.29-2.78,3.29Zm0-6.27c-1.19,0-2.46,.78-2.46,2.98s1.27,2.98,2.46,2.98,2.46-.78,2.46-2.98-1.27-2.98-2.46-2.98Z"/><path class="g" d="M26.64,70.99c-1.28,0-2.78-.86-2.78-3.29s1.5-3.3,2.78-3.3,2.78,.86,2.78,3.3-1.5,3.29-2.78,3.29Zm0-6.27c-1.19,0-2.46,.78-2.46,2.98s1.27,2.98,2.46,2.98,2.46-.78,2.46-2.98-1.27-2.98-2.46-2.98Z"/><path class="g" d="M14.85,70.99s-.1-.02-.13-.07c-.22-.31-.25-.91-.28-1.49-.02-.4-.04-.82-.13-1.03-.22-.52-.81-.49-.86-.48-.08,.01-.16,.02-.25,.02h-2.18v2.89c0,.09-.07,.16-.16,.16s-.16-.07-.16-.16v-5.8c0-.35,.28-.64,.62-.64h1.87c.95,0,1.73,.8,1.73,1.78,0,.67-.36,1.24-.89,1.55,.22,.1,.43,.27,.56,.57,.11,.26,.13,.68,.16,1.13,.03,.51,.05,1.08,.22,1.32,.05,.07,.04,.17-.04,.22-.03,.02-.06,.03-.09,.03Zm-3.83-3.37h2.18c.07,0,.13,0,.2-.01h0c.68-.11,1.2-.71,1.2-1.44,0-.8-.63-1.46-1.41-1.46h-1.87c-.17,0-.31,.14-.31,.32v2.59Z"/><path class="g" d="M33.82,70.98h0c-.08,0-.22-.04-.32-.28l-2.1-5.58v5.69c0,.09-.07,.16-.16,.16s-.16-.07-.16-.16v-6.05c0-.09,0-.32,.18-.36,.18-.04,.27,.18,.31,.26l2.22,5.92s.02,.05,.03,.06c0-.01,.02-.03,.03-.07l2.22-5.91c.03-.09,.12-.3,.31-.27,.18,.04,.18,.27,.18,.36v6.05c0,.09-.07,.16-.16,.16s-.16-.07-.16-.16v-5.69l-2.09,5.57c-.1,.25-.25,.28-.33,.28Z"/><path class="g" d="M35.11,31.64H17.31c-.09,0-.16-.07-.16-.16s.07-.16,.16-.16h17.65l.59-16.94H12.39l-.51,14.7c0,.09-.07,.15-.16,.15h0c-.09,0-.16-.08-.15-.16l.52-14.86c0-.09,.08-.15,.16-.15h23.48s.09,.02,.12,.05c.03,.03,.05,.07,.04,.12l-.6,17.26c0,.09-.07,.15-.16,.15Z"/><path class="g" d="M20.66,39.77c-1.29,0-2.27-.46-2.27-1.07s.97-1.07,2.27-1.07,2.27,.46,2.27,1.07-.97,1.07-2.27,1.07Zm0-1.83c-1.15,0-1.95,.4-1.95,.75s.8,.75,1.95,.75,1.95-.4,1.95-.75-.8-.75-1.95-.75Z"/><path class="n" d="M17.69,62.3c-.09,0-.19-.02-.28-.05-.41-.15-.62-.61-.47-1.02l2.37-6.31c.25-.66,.79-.69,.92-.71,.15,0,.68,.05,.92,.72l2.28,6.3c.15,.41-.07,.87-.48,1.02-.41,.15-.87-.06-1.02-.48l-.67-1.85h-2.14l-.7,1.86c-.12,.32-.42,.52-.74,.52Zm2.04-3.97h.96l-.47-1.31-.49,1.31Zm16.67,3.96h-3.56c-.71,0-1.28-.57-1.28-1.28v-5.52c0-.71,.57-1.28,1.28-1.28h3.56c.44,0,.79,.35,.79,.79s-.36,.8-.79,.8h-3.25v1.57h2.86c.44,0,.8,.36,.8,.79s-.36,.79-.8,.79h-2.86v1.74h3.25c.44,0,.79,.36,.79,.8s-.36,.79-.79,.79Zm-23.31,0c-1.75,0-3.5-1.25-3.5-4.04s1.76-4.04,3.5-4.04c1.61,0,2.84,.87,3.21,2.26,.11,.42-.14,.86-.56,.97-.43,.11-.86-.14-.97-.56-.25-.94-1.16-1.08-1.67-1.08-1.2,0-1.91,.92-1.91,2.45s.71,2.45,1.91,2.45c.94,0,1.6-.57,1.83-1.58h-1.55c-.44,0-.8-.36-.8-.79s.36-.79,.8-.79h1.95c.53,0,.98,.32,1.18,.78,0,.02,.02,.04,.02,.06,.05,.14,.08,.29,.08,.44v2.52c0,.44-.36,.8-.8,.8-.32,0-.6-.19-.72-.46-.56,.4-1.24,.62-1.99,.62Zm16.86,0c-.44,0-.79-.36-.79-.8v-2.42l-.95,2.51c-.18,.45-.53,.7-.93,.7h0c-.4,0-.74-.25-.92-.67l-.95-2.54v2.41c0,.44-.36,.8-.8,.8s-.79-.36-.79-.8v-6.26c0-.79,.53-.96,.69-.99,.16-.03,.72-.08,1.02,.65l1.75,4.66,1.74-4.63c.31-.75,.87-.7,1.03-.67,.16,.03,.69,.2,.69,.99v6.26c0,.44-.36,.8-.8,.8ZM12.78,40.21c-1.25,0-1.79-.74-1.85-.82-.09-.13-.14-.29-.14-.45v-2.52c-.65-.57-1.03-1.39-1.03-2.26,0-1.66,1.35-3.02,3.02-3.02s3.01,1.35,3.01,3.02c0,.88-.38,1.69-1.03,2.26v2.52c0,.16-.05,.32-.14,.45-.06,.08-.6,.82-1.85,.82Zm-.4-1.65c.17,.06,.62,.07,.79,0v-2.53c0-.27,.14-.52,.37-.67,.41-.27,.66-.71,.66-1.2,0-.79-.64-1.43-1.42-1.43s-1.43,.64-1.43,1.43c0,.48,.25,.93,.66,1.2,.23,.15,.37,.4,.37,.67v2.53ZM32.08,6.6H7.85c-.44,0-.79-.36-.79-.8s.36-.79,.79-.79h24.24c.44,0,.79,.36,.79,.79s-.36,.8-.79,.8Z"/><path class="j" d="M13.1,61.97c-1.47,0-3.19-.97-3.19-3.72s1.72-3.72,3.19-3.72,2.57,.77,2.9,2.02c.07,.26-.08,.52-.34,.58-.25,.07-.51-.08-.58-.34-.32-1.19-1.49-1.32-1.98-1.32-1.08,0-2.23,.73-2.23,2.77s1.15,2.76,2.23,2.76c1.15,0,1.97-.76,2.18-2.03,0-.06,.02-.12,.02-.18h-1.92c-.26,0-.48-.22-.48-.48s.21-.48,.48-.48h1.95c.4,0,.74,.25,.89,.59v.03c.05,.1,.07,.22,.07,.34v2.52c0,.26-.21,.48-.48,.48s-.48-.21-.48-.48v-.29c-.56,.6-1.33,.93-2.24,.93Z"/><path class="j" d="M36.4,61.98h-3.56c-.53,0-.96-.43-.96-.96v-5.52c0-.53,.43-.96,.96-.96h3.56c.26,0,.48,.21,.48,.48s-.21,.48-.48,.48h-3.56v2.21h3.17c.26,0,.48,.21,.48,.48s-.21,.48-.48,.48h-3.17v2.37h3.56c.26,0,.48,.22,.48,.48s-.21,.48-.48,.48Z"/><path class="j" d="M17.69,61.98c-.06,0-.11,0-.17-.03-.25-.09-.37-.37-.28-.61l2.37-6.31c.17-.45,.49-.5,.62-.5h0c.13,0,.45,.05,.62,.51l2.28,6.3c.09,.25-.04,.52-.29,.61-.25,.09-.52-.04-.61-.29l-.74-2.06h-2.58l-.78,2.07c-.07,.19-.25,.31-.45,.31Zm1.58-3.33h1.88l-.92-2.55-.96,2.55Z"/><path class="j" d="M29.96,61.97c-.26,0-.48-.21-.48-.48v-4.16l-1.56,4.14c-.18,.45-.5,.49-.63,.49h0c-.13,0-.45-.05-.63-.48l-1.56-4.16v4.16c0,.26-.21,.48-.48,.48s-.48-.21-.48-.48v-6.26c0-.51,.27-.65,.44-.68,.17-.03,.47-.02,.67,.46l2.04,5.44,2.04-5.42c.2-.49,.5-.51,.67-.47,.17,.03,.44,.16,.44,.68v6.26c0,.26-.21,.48-.48,.48Z"/><path class="j" d="M32.08,6.28H7.85c-.26,0-.48-.21-.48-.48s.21-.48,.48-.48h24.24c.26,0,.48,.21,.48,.48s-.21,.48-.48,.48Z"/><path class="j" d="M12.78,39.89c-1.09,0-1.54-.62-1.59-.69-.05-.08-.08-.17-.08-.27v-2.66c-.65-.51-1.03-1.28-1.03-2.11,0-1.49,1.21-2.7,2.7-2.7s2.7,1.21,2.7,2.7c0,.83-.38,1.6-1.03,2.11v2.67c0,.1-.03,.19-.08,.27-.05,.07-.5,.68-1.59,.68Zm-.72-1.15c.11,.08,.33,.2,.72,.2s.6-.12,.71-.2v-2.71c0-.16,.08-.31,.22-.4,.5-.32,.81-.87,.81-1.47,0-.96-.78-1.74-1.74-1.74s-1.74,.78-1.74,1.74c0,.59,.3,1.14,.81,1.47,.14,.09,.22,.24,.22,.4v2.72Z"/><path class="d" d="M13.1,61.65c-1.32,0-2.87-.89-2.87-3.4s1.55-3.4,2.87-3.4,2.3,.67,2.6,1.79c.02,.09-.03,.17-.11,.19-.09,.02-.17-.03-.19-.11-.26-.97-1.12-1.55-2.29-1.55-1.23,0-2.55,.81-2.55,3.08s1.32,3.08,2.55,3.08c1.32,0,2.25-.86,2.49-2.29,.02-.11,.04-.23,.03-.37-.05-.11-.16-.18-.29-.18h-1.95c-.09,0-.16-.07-.16-.16s.07-.16,.16-.16h1.95c.27,0,.5,.17,.59,.4h0c.03,.08,.04,.16,.04,.24v2.52c0,.09-.07,.16-.16,.16s-.16-.07-.16-.16v-1.37c-.45,1.06-1.38,1.69-2.56,1.69Z"/><path class="d" d="M36.4,61.66h-3.56c-.36,0-.64-.29-.64-.64v-5.52c0-.35,.29-.64,.64-.64h3.56c.09,0,.16,.07,.16,.16s-.07,.16-.16,.16h-3.56c-.18,0-.32,.14-.32,.32v2.52h3.5c.09,0,.16,.07,.16,.16s-.07,.16-.16,.16h-3.5v2.68c0,.18,.15,.32,.32,.32h3.56c.09,0,.16,.07,.16,.16s-.07,.16-.16,.16Z"/><path class="d" d="M17.69,61.66s-.04,0-.06,0c-.08-.03-.12-.12-.09-.2l2.37-6.31c.1-.26,.24-.3,.32-.3h0c.08,0,.23,.04,.32,.3l2.28,6.3c.03,.08-.01,.17-.09,.2-.09,.03-.18-.01-.2-.1l-.82-2.26h-3.03l-.85,2.27c-.02,.06-.08,.1-.15,.1Zm1.12-2.69h2.79l-1.35-3.72s-.02-.04-.03-.06c0,.02-.02,.03-.02,.06l-1.4,3.72Z"/><path class="d" d="M29.96,61.65c-.09,0-.16-.07-.16-.16v-5.92l-2.18,5.79c-.1,.25-.25,.29-.33,.29h0c-.08,0-.23-.04-.33-.28l-2.18-5.8v5.92c0,.09-.07,.16-.16,.16s-.16-.07-.16-.16v-6.26c0-.09,0-.33,.18-.37,.18-.03,.28,.18,.31,.27l2.3,6.12s.03,.06,.04,.07c0-.01,.02-.04,.03-.08l2.29-6.11c.04-.09,.13-.3,.31-.27,.18,.04,.18,.28,.18,.37v6.26c0,.09-.07,.16-.16,.16Z"/><path class="d" d="M32.08,5.96H7.85c-.09,0-.16-.07-.16-.16s.07-.16,.16-.16h24.24c.09,0,.16,.07,.16,.16s-.07,.16-.16,.16Z"/><path class="d" d="M12.78,39.57c-.94,0-1.31-.52-1.33-.55-.02-.03-.03-.06-.03-.09v-2.83c-.65-.45-1.03-1.17-1.03-1.95,0-1.31,1.07-2.38,2.38-2.38s2.38,1.07,2.38,2.38c0,.78-.38,1.51-1.03,1.95v2.83s0,.06-.03,.09c-.02,.02-.38,.55-1.32,.55Zm-1.03-.69c.09,.1,.39,.37,1.03,.37s.94-.27,1.03-.37v-2.86c0-.05,.03-.1,.07-.13,.6-.38,.96-1.03,.96-1.73,0-1.14-.92-2.06-2.06-2.06s-2.06,.92-2.06,2.06c0,.7,.36,1.35,.96,1.73,.05,.03,.07,.08,.07,.13v2.86Z"/><path class="k" d="M28.43,40.41c-1.71,0-2.9-.7-2.9-1.71s1.19-1.71,2.9-1.71,2.9,.7,2.9,1.71-1.19,1.71-2.9,1.71Zm-.93-1.71c.46,.13,1.41,.13,1.87,0-.46-.13-1.41-.13-1.87,0Z"/><path class="i" d="M28.43,40.09c-1.28,0-2.58-.48-2.58-1.39,0-1.83,5.17-1.82,5.17,0,0,.91-1.3,1.39-2.59,1.39Zm0-1.83c-1.01,0-1.58,.33-1.63,.46,.05,.09,.62,.42,1.63,.42s1.58-.33,1.63-.46c-.05-.09-.62-.42-1.63-.42Z"/><path class="e" d="M28.43,39.77c-1.29,0-2.26-.46-2.26-1.07s.97-1.07,2.26-1.07,2.27,.46,2.27,1.07-.97,1.07-2.27,1.07Zm0-1.83c-1.15,0-1.95,.4-1.95,.75s.8,.75,1.95,.75,1.95-.4,1.95-.75-.8-.75-1.95-.75Z"/><path class="m" d="M39.21,74.85c-.25,0-.49-.12-.65-.33-.26-.36-.18-.85,.18-1.11l6.8-4.9V6.32l-6.63-2.57c-.41-.16-.61-.62-.45-1.03,.16-.41,.62-.61,1.03-.45l7.13,2.76c.31,.12,.51,.41,.51,.74v63.14c0,.26-.12,.5-.33,.64l-7.13,5.13c-.14,.1-.3,.15-.46,.15Zm-7.73-25.3H3.41c-.44,0-.8-.36-.8-.8s.36-.8,.8-.8H31.48c.44,0,.79,.36,.79,.8s-.36,.8-.79,.8Zm2.98-.3c-.44,0-.79-.36-.79-.8v-6.52c0-.08,0-.16,.03-.23,.02-.08,.06-.15,.1-.22l3.34-5.17H17.82c-.44,0-.79-.36-.79-.8s.36-.8,.79-.8h20.01l.58-23.91c.01-.43,.37-.78,.8-.78h.02c.44,.01,.79,.38,.78,.81l-.6,24.68c0,.16-.05,.3-.13,.42l-4.01,6.2v6.3c0,.44-.35,.8-.79,.8ZM.79,49.24c-.44,0-.79-.36-.79-.8v-6.55c0-.11,.03-.22,.07-.32,.04-.09,.1-.17,.17-.24,0-.01,.02-.02,.03-.03l6.9-6.18,1.15-23.52h-2.9c-1.55,0-2.81-1.26-2.81-2.81V2.81C2.61,1.26,3.87,0,5.42,0h29.08c1.55,0,2.81,1.26,2.81,2.81v5.99c0,1.55-1.26,2.81-2.81,2.81H9.91l-1.17,23.93c0,.1-.03,.2-.07,.29-.04,.1-.11,.19-.19,.26l-5.6,5.02H31.48c.44,0,.79,.36,.79,.8s-.36,.79-.79,.79H1.59v5.74c0,.44-.36,.8-.8,.8ZM9.16,10.02h25.35c.67,0,1.22-.55,1.22-1.22V2.81c0-.67-.55-1.22-1.22-1.22H5.42c-.67,0-1.22,.55-1.22,1.22v5.99c0,.67,.55,1.22,1.22,1.22h3.72s0,0,.01,0Z"/><path class="h" d="M7.95,35.98s-.02,0-.02,0c-.26-.01-.47-.24-.45-.5l1.21-24.68c.01-.26,.2-.48,.5-.45,.26,.01,.47,.24,.45,.5l-1.2,24.68c-.01,.26-.23,.45-.48,.45Z"/><path class="h" d="M38.6,35.98h-.01c-.26,0-.47-.23-.47-.49l.6-24.68c0-.26,.25-.46,.49-.47,.26,0,.47,.23,.47,.49l-.6,24.68c0,.26-.22,.47-.48,.47Z"/><path class="h" d="M39.21,74.53H7.91c-.26,0-.47-.21-.48-.46l-.6-22.63c0-.26,.2-.48,.46-.49,.27,0,.48,.2,.49,.46l.59,22.17h30.34l-.58-21.68H11.25c-.26,0-.48-.21-.48-.48s.21-.48,.48-.48h27.35c.26,0,.47,.21,.48,.46l.6,22.63c0,.13-.05,.25-.13,.35-.09,.09-.21,.14-.34,.14Z"/><path class="h" d="M34.46,42.38c-.09,0-.18-.03-.26-.08-.22-.14-.29-.44-.14-.66l3.66-5.67H17.82c-.26,0-.48-.21-.48-.48s.21-.48,.48-.48h20.79c.17,0,.34,.1,.42,.25,.08,.15,.08,.34-.02,.49l-4.14,6.41c-.09,.14-.24,.22-.4,.22Z"/><path class="h" d="M.79,42.38c-.13,0-.26-.05-.36-.16-.18-.2-.16-.5,.04-.67l7.15-6.41c.19-.17,.5-.16,.67,.04,.18,.2,.16,.5-.04,.67l-7.15,6.4c-.09,.08-.21,.12-.32,.12Z"/><path class="h" d="M34.46,48.92c-.26,0-.48-.21-.48-.48v-6.54c0-.26,.21-.48,.48-.48s.48,.21,.48,.48v6.54c0,.26-.21,.48-.48,.48Z"/><path class="h" d="M.79,48.92c-.26,0-.48-.21-.48-.48v-6.54c0-.26,.21-.48,.48-.48s.48,.21,.48,.48v6.54c0,.26-.21,.48-.48,.48Z"/><path class="h" d="M34.51,11.29H5.42c-1.37,0-2.49-1.12-2.49-2.49V2.81C2.93,1.44,4.05,.32,5.42,.32h29.08c1.37,0,2.49,1.12,2.49,2.49v5.99c0,1.37-1.12,2.49-2.49,2.49ZM5.42,1.27c-.85,0-1.54,.69-1.54,1.54v5.99c0,.85,.69,1.54,1.54,1.54h29.08c.85,0,1.54-.69,1.54-1.54V2.81c0-.85-.69-1.54-1.54-1.54H5.42Z"/><path class="h" d="M39.21,74.53c-.15,0-.3-.07-.39-.2-.16-.21-.1-.51,.11-.67l6.93-4.99V6.1l-6.83-2.65c-.24-.1-.37-.37-.27-.62,.09-.25,.37-.37,.62-.27l7.13,2.76c.18,.07,.31,.25,.31,.44v63.14c0,.15-.07,.29-.2,.39l-7.13,5.13c-.08,.06-.18,.09-.28,.09Z"/><path class="h" d="M31.48,49.22H3.41c-.26,0-.48-.21-.48-.48s.21-.48,.48-.48H31.48c.26,0,.48,.21,.48,.48s-.21,.48-.48,.48Z"/><path class="h" d="M31.48,42.38H.79c-.26,0-.48-.21-.48-.48s.21-.48,.48-.48H31.48c.26,0,.48,.21,.48,.48s-.21,.48-.48,.48Z"/><path class="o" d="M7.95,35.66h0c-.09,0-.16-.08-.15-.17l1.21-24.68c0-.09,.08-.15,.17-.15,.09,0,.16,.08,.15,.17l-1.21,24.68c0,.09-.07,.15-.16,.15Z"/><path class="o" d="M38.6,35.66h0c-.09,0-.16-.07-.16-.16l.6-24.68c0-.09,.07-.15,.16-.15h0c.09,0,.16,.07,.16,.16l-.6,24.68c0,.09-.07,.16-.16,.16Z"/><path class="o" d="M39.21,74.21H7.91c-.09,0-.16-.07-.16-.16l-.6-22.63c0-.09,.07-.16,.16-.16h0c.09,0,.16,.07,.16,.15l.6,22.48h30.97l-.59-22.32H11.25c-.09,0-.16-.07-.16-.16s.07-.16,.16-.16h27.35c.09,0,.16,.07,.16,.15l.6,22.63s-.02,.09-.04,.12c-.03,.03-.07,.05-.11,.05Z"/><path class="o" d="M34.46,42.06s-.06,0-.09-.03c-.07-.05-.09-.15-.05-.22l3.99-6.16H17.82c-.09,0-.16-.07-.16-.16s.07-.16,.16-.16h20.79c.06,0,.11,.03,.14,.08,.03,.05,.03,.11,0,.16l-4.14,6.41s-.08,.07-.13,.07Z"/><path class="o" d="M.79,42.06s-.09-.02-.12-.05c-.06-.07-.05-.17,.01-.23l7.15-6.41c.06-.06,.17-.05,.22,.01,.06,.07,.05,.17-.01,.23L.9,42.02s-.07,.04-.11,.04Z"/><path class="o" d="M34.46,48.6c-.09,0-.16-.07-.16-.16v-6.54c0-.09,.07-.16,.16-.16s.16,.07,.16,.16v6.54c0,.09-.07,.16-.16,.16Z"/><path class="o" d="M.79,48.6c-.09,0-.16-.07-.16-.16v-6.54c0-.09,.07-.16,.16-.16s.16,.07,.16,.16v6.54c0,.09-.07,.16-.16,.16Z"/><path class="o" d="M34.51,10.97H5.42c-1.2,0-2.17-.97-2.17-2.17V2.81c0-1.2,.97-2.17,2.17-2.17h29.08c1.2,0,2.17,.97,2.17,2.17v5.99c0,1.2-.98,2.17-2.17,2.17ZM5.42,.95c-1.02,0-1.85,.83-1.85,1.85v5.99c0,1.02,.83,1.85,1.85,1.85h29.08c1.02,0,1.86-.83,1.86-1.85V2.81c0-1.02-.83-1.85-1.86-1.85H5.42Z"/><path class="o" d="M39.21,74.21s-.1-.02-.13-.07c-.05-.07-.03-.17,.04-.22l7.07-5.08V5.88l-7.03-2.72c-.08-.03-.12-.12-.09-.21,.03-.08,.12-.12,.2-.09l7.13,2.76c.06,.02,.1,.08,.1,.15v63.14s-.02,.1-.07,.13l-7.13,5.13s-.06,.03-.09,.03Z"/><path class="o" d="M31.48,48.91H3.41c-.09,0-.16-.07-.16-.16s.07-.16,.16-.16H31.48c.09,0,.16,.07,.16,.16s-.07,.16-.16,.16Z"/><path class="o" d="M31.48,42.06H.79c-.09,0-.16-.07-.16-.16s.07-.16,.16-.16H31.48c.09,0,.16,.07,.16,.16s-.07,.16-.16,.16Z"/></g></g></g></svg>